<svg width="75" height="80" viewBox="0 0 75 80" fill="none" xmlns="http://www.w3.org/2000/svg">
<path d="M7.03125 5C3.14941 5 0 8.91927 0 13.75C0 16.5026 1.04004 19.0911 2.8125 20.75L34.6875 50.5C36.3574 52.0495 38.6426 52.0495 40.3125 50.5L72.1875 20.75C73.96 19.0911 75 16.5026 75 13.75C75 8.91927 71.8506 5 67.9688 5H7.03125ZM0 25.4167V63.3333C0 69.7682 4.2041 75 9.375 75H65.625C70.7959 75 75 69.7682 75 63.3333V25.4167L43.125 55.1667C39.7852 58.2839 35.2148 58.2839 31.875 55.1667L0 25.4167Z" fill="#B5B5B5"/>
</svg>
