<svg width="75" height="80" viewBox="0 0 75 80" fill="none" xmlns="http://www.w3.org/2000/svg">
<path d="M75 15C75 9.48438 70.1953 5 64.2857 5H10.7143C4.80469 5 0 9.48438 0 15V65C0 70.5156 4.80469 75 10.7143 75H64.2857C70.1953 75 75 70.5156 75 65V15ZM44.4978 63.7031C44.4978 63.4219 44.4978 62.7656 44.5145 61.8906C44.5312 60.1094 44.5312 57.3906 44.5312 55.0625C44.5312 52.625 43.6607 51.0781 42.6395 50.2656C48.8337 49.625 55.3627 48.8281 55.3627 38.8438C55.3627 36 54.2746 34.5781 52.5 32.75C52.7846 32.0781 53.7388 29.3125 52.2154 25.7188C49.8884 25.0469 44.5647 28.5156 44.5647 28.5156C42.3549 27.9375 39.9609 27.6406 37.6004 27.6406C35.24 27.6406 32.846 27.9375 30.6362 28.5156C30.6362 28.5156 25.3125 25.0469 22.9855 25.7188C21.4621 29.2969 22.3996 32.0625 22.7009 32.75C20.9263 34.5781 20.0893 36 20.0893 38.8438C20.0893 48.7812 26.3337 49.625 32.5279 50.2656C31.7243 50.9375 31.0045 52.0938 30.7533 53.75C29.1629 54.4219 25.0949 55.5781 22.6674 51.5781C21.144 49.1094 18.3984 48.9062 18.3984 48.9062C15.6864 48.875 18.2143 50.5 18.2143 50.5C20.0223 51.2812 21.2946 54.2812 21.2946 54.2812C22.9185 58.9219 30.6864 57.3594 30.6864 57.3594C30.6864 58.7656 30.7031 60.75 30.7031 62.1406C30.7031 62.8906 30.7199 63.4844 30.7199 63.7031C30.7199 64.375 30.2176 65.1875 28.7946 64.9531C17.7455 61.5 10.0112 51.6875 10.0112 40.2188C10.0112 25.875 21.7634 14.9844 37.1317 14.9844C52.5 14.9844 64.9554 25.875 64.9554 40.2188C64.9721 51.6875 57.4721 61.5156 46.423 64.9531C45.0167 65.1875 44.4978 64.375 44.4978 63.7031ZM29.3471 55.1406C29.3136 54.9062 29.5312 54.7031 29.8493 54.6406C30.1674 54.6094 30.4688 54.7344 30.5022 54.9375C30.5525 55.1406 30.3348 55.3438 30 55.4062C29.6819 55.4688 29.3806 55.3438 29.3471 55.1406ZM27.8237 55.6406C27.4554 55.6719 27.2042 55.5 27.2042 55.2656C27.2042 55.0625 27.4554 54.8906 27.7902 54.8906C28.1083 54.8594 28.4096 55.0312 28.4096 55.2656C28.4096 55.4688 28.1585 55.6406 27.8237 55.6406ZM25.4297 55.2969C25.1116 55.2344 24.894 55 24.9609 54.7969C25.0279 54.5938 25.3627 54.5 25.6473 54.5625C25.9821 54.6563 26.1998 54.8906 26.1161 55.0938C26.0491 55.2969 25.7143 55.3906 25.4297 55.2969ZM23.3371 54.1562C23.0859 53.9531 23.019 53.6562 23.1864 53.5156C23.3371 53.3438 23.6551 53.375 23.9062 53.6094C24.1239 53.8125 24.2076 54.125 24.0569 54.25C23.9062 54.4219 23.5882 54.3906 23.3371 54.1562ZM21.9141 52.5938C21.7299 52.3594 21.7299 52.0938 21.9141 51.9844C22.0982 51.8438 22.3828 51.9531 22.5335 52.1875C22.7176 52.4219 22.7176 52.7031 22.5335 52.8281C22.3828 52.9219 22.0982 52.8281 21.9141 52.5938ZM20.8594 51.2188C20.6752 51.0156 20.6417 50.7812 20.7924 50.6719C20.9431 50.5312 21.1942 50.6094 21.3783 50.7656C21.5625 50.9688 21.596 51.2031 21.4453 51.3125C21.2946 51.4531 21.0435 51.375 20.8594 51.2188ZM19.8549 50.2188C19.6373 50.125 19.5368 49.9531 19.6038 49.8125C19.6708 49.7187 19.8549 49.6719 20.0725 49.75C20.2902 49.8594 20.3906 50.0312 20.3237 50.1562C20.2567 50.2969 20.0391 50.3281 19.8549 50.2188Z" fill="#B5B5B5"/>
</svg>
