<svg width="50" height="51" viewBox="0 0 50 51" fill="none" xmlns="http://www.w3.org/2000/svg">
<path d="M1.04911 22.7155C-0.345979 24.3431 -0.345979 26.9863 1.04911 28.6139L18.9063 49.4473C20.3013 51.0749 22.567 51.0749 23.9621 49.4473C25.3571 47.8197 25.3571 45.1764 23.9621 43.5488L12.1875 29.8249L46.4286 29.8249C48.404 29.8249 50 27.9629 50 25.6582C50 23.3535 48.404 21.4915 46.4286 21.4915L12.1987 21.4915L23.9509 7.76758C25.346 6.13998 25.346 3.49674 23.9509 1.86914C22.5558 0.241535 20.2902 0.241535 18.8951 1.86914L1.03795 22.7025L1.04911 22.7155Z" fill="black"/>
</svg>
