<svg width="75" height="80" viewBox="0 0 75 80" fill="none" xmlns="http://www.w3.org/2000/svg">
<path d="M69.6429 5H5.3404C2.39397 5 0 7.26563 0 10.0469V69.9531C0 72.7344 2.39397 75 5.3404 75H69.6429C72.5893 75 75 72.7344 75 69.9531V10.0469C75 7.26563 72.5893 5 69.6429 5ZM22.6674 65H11.5513V31.5938H22.6842V65H22.6674ZM17.1094 27.0312C13.5435 27.0312 10.6641 24.3281 10.6641 21.0156C10.6641 17.7031 13.5435 15 17.1094 15C20.6585 15 23.5547 17.7031 23.5547 21.0156C23.5547 24.3438 20.6752 27.0312 17.1094 27.0312ZM64.3359 65H53.2199V48.75C53.2199 44.875 53.1362 39.8906 47.4442 39.8906C41.6518 39.8906 40.7645 44.1094 40.7645 48.4688V65H29.6484V31.5938H40.3125V36.1562H40.4632C41.9531 33.5312 45.5859 30.7656 50.9933 30.7656C62.2433 30.7656 64.3359 37.6875 64.3359 46.6875V65Z" fill="#B5B5B5"/>
</svg>
