<svg width="75" height="80" viewBox="0 0 75 80" fill="none" xmlns="http://www.w3.org/2000/svg">
<path d="M15.4185 39.7812C15.4185 43.6719 16.5904 47.4688 18.8002 50.7344L19.3192 51.5156L17.0926 59.1094L25.4464 57.0625L26.25 57.5156C29.6317 59.3906 33.5156 60.3906 37.4833 60.3906H37.5C49.654 60.3906 59.8158 51.1562 59.8158 39.7969C59.8158 34.2969 57.2712 29.125 53.1027 25.2344C48.9174 21.3281 43.3929 19.1875 37.5 19.1875C25.3292 19.1875 15.4353 28.4219 15.4185 39.7812ZM46.0045 51.5625C43.8951 51.8594 42.2545 51.7031 38.0525 50.0156C31.8917 47.5312 27.7065 41.9688 26.8527 40.8438C26.7857 40.75 26.7355 40.7031 26.7188 40.6719C26.3839 40.2656 24.0067 37.3125 24.0067 34.2656C24.0067 31.3906 25.5134 29.9062 26.2165 29.2188C26.2667 29.1719 26.3002 29.1406 26.3337 29.0938C26.9364 28.4688 27.6562 28.3125 28.1083 28.3125C28.5435 28.3125 28.9955 28.3125 29.3806 28.3281C29.4308 28.3281 29.4643 28.3281 29.5145 28.3281C29.8996 28.3281 30.385 28.3281 30.8705 29.3906C31.0714 29.8438 31.3728 30.5312 31.6908 31.2344C32.2433 32.4844 32.8125 33.7812 32.9129 33.9844C33.0804 34.2969 33.1975 34.6562 32.9632 35.0625C32.394 36.125 31.808 36.6875 31.4063 37.0938C30.8873 37.5938 30.6529 37.8281 31.0212 38.4375C33.5826 42.5469 36.144 43.9688 40.0446 45.7969C40.7143 46.1094 41.0993 46.0625 41.4844 45.6406C41.8694 45.2344 43.1417 43.8281 43.577 43.2188C44.0123 42.5938 44.4643 42.7031 45.067 42.9062C45.6696 43.1094 48.9342 44.6094 49.6038 44.9219C49.7377 44.9844 49.8549 45.0312 49.9554 45.0781C50.4241 45.2969 50.7422 45.4375 50.8761 45.6406C51.0268 45.9375 51.0268 47.1875 50.4743 48.625C49.9219 50.0781 47.2768 51.3906 46.0045 51.5625ZM75 15C75 9.48438 70.1953 5 64.2857 5H10.7143C4.80469 5 0 9.48438 0 15V65C0 70.5156 4.80469 75 10.7143 75H64.2857C70.1953 75 75 70.5156 75 65V15ZM24.7935 61.5469L10.7143 65L14.481 52.1562C12.154 48.4062 10.9319 44.1406 10.9319 39.7656C10.9487 26.1094 22.8516 15 37.4833 15C44.5815 15 51.2444 17.5781 56.2667 22.2656C61.2723 26.9531 64.2857 33.1719 64.2857 39.7969C64.2857 53.4531 52.115 64.5625 37.4833 64.5625C33.0301 64.5625 28.6607 63.5156 24.7935 61.5469Z" fill="#B5B5B5"/>
</svg>
